<?xml version="1.0" encoding="iso-8859-1"?>
<!-- Generator: Adobe Illustrator 19.0.0, SVG Export Plug-In . SVG Version: 6.00 Build 0)  -->
<svg version="1.1" id="Layer_1" xmlns="http://www.w3.org/2000/svg" xmlns:xlink="http://www.w3.org/1999/xlink" x="0px" y="0px"
	 viewBox="0 0 459 459" style="enable-background:new 0 0 459 459;" xml:space="preserve">
<g>
	<g>
		<path d="M391.781,67.219c-89.625-89.625-234.937-89.625-324.562,0s-89.625,234.937,0,324.562s234.937,89.625,324.562,0
			S481.406,156.844,391.781,67.219z M309.886,254.5H254.5v55.386c0,13.807-11.193,25-25,25s-25-11.193-25-25V254.5h-55.386
			c-13.807,0-25-11.193-25-25s11.193-25,25-25H204.5v-55.386c0-13.807,11.193-25,25-25s25,11.193,25,25V204.5h55.386
			c13.806,0,25,11.193,25,25S323.693,254.5,309.886,254.5z"/>
	</g>
</g>
<g>
</g>
<g>
</g>
<g>
</g>
<g>
</g>
<g>
</g>
<g>
</g>
<g>
</g>
<g>
</g>
<g>
</g>
<g>
</g>
<g>
</g>
<g>
</g>
<g>
</g>
<g>
</g>
<g>
</g>
</svg>
